<svg xmlns="http://www.w3.org/2000/svg" xmlns:xlink="http://www.w3.org/1999/xlink"><symbol id="icon-insta" viewBox="-3 -3 23 23">
  <path fill="#231F20" d="M14.002-1.501c2.48,0,4.498,2.02,4.498,4.501v11c0,2.481-2.018,4.5-4.498,4.5H3.01
  c-2.48,0-4.498-2.019-4.498-4.5V3c0-2.481,2.018-4.5,4.498-4.5h10.992 M14.002-3H3.01C-0.29-3-2.987-0.301-2.987,3v11.001
  C-2.987,17.299-0.29,20,3.01,20h10.995C17.301,20,20,17.299,20,13.999V3C20-0.301,17.301-3,14.002-3L14.002-3z"/>
  <path fill="#231F20" d="M8.506,4.078c2.44,0,4.429,1.985,4.429,4.428c0,2.44-1.989,4.43-4.429,4.43c-2.443,0-4.428-1.989-4.428-4.43
  C4.078,6.063,6.063,4.078,8.506,4.078 M8.506,2.578c-3.273,0-5.928,2.654-5.928,5.928s2.654,5.927,5.928,5.927
  c3.274,0,5.926-2.653,5.926-5.927S11.78,2.578,8.506,2.578L8.506,2.578z"/>
  <circle fill="#231F20" cx="14.646" cy="2.379" r="1.341"/>
</symbol><symbol id="icon-vk-mobile" viewBox="0 0 22 12">
  <g>
    <path d="M17.6,12c-0.3,0-0.9-0.1-1.5-0.5c-0.5-0.3-0.9-0.7-1.3-1.2c-0.3-0.3-0.9-0.9-1.1-0.9c-0.2,0.1-0.4,0.7-0.3,1.2
    c0,0.1,0,0.6-0.3,0.9c-0.3,0.3-0.8,0.4-0.9,0.4l-1.4,0c-0.7,0-3.2-0.2-5.4-2.3C2.5,7.1,0.2,2.2,0.1,2C0,1.6-0.1,1.2,0.2,0.9
    c0.3-0.3,0.8-0.4,1-0.4l3,0l0.1,0c0.1,0,0.4,0.1,0.7,0.3c0.3,0.2,0.4,0.5,0.5,0.6c0,0,0.5,1.1,1.1,2c1,1.5,1.4,1.9,1.5,2
    C8.2,5,8.3,4,8.2,3.1c0-0.4-0.1-0.8-0.2-1C7.9,2,7.7,1.9,7.5,1.9L6.9,1.4C6.9,0.9,7.4,0.5,7.8,0.3C8.3,0.1,9.1,0,10.1,0l0.5,0
    c0.9,0,1.2,0.1,1.6,0.1c1.2,0.3,1.2,1.3,1.1,2.5c0,0.4,0,0.8,0,1.2c0,0.1,0,0.2,0,0.4c0,0.3,0,0.8,0.1,1c0.2-0.1,0.6-0.5,1.5-1.9
    c0.6-0.9,1-1.9,1.1-2.1l0,0c0.1-0.3,0.4-0.7,1.2-0.7l3.1,0c0,0,0.1,0,0.3,0c0.7,0,1.2,0.2,1.3,0.7c0.2,0.5,0.1,1.3-1.7,3.5
    c-0.3,0.3-0.5,0.6-0.7,0.9C19,6,18.6,6.6,18.6,6.7c0,0.1,0.5,0.5,0.9,0.9c1.1,0.9,1.9,1.7,2.2,2.3c0.4,0.6,0.3,1,0.2,1.3
    c-0.3,0.7-1.2,0.7-1.4,0.8l-2.8,0C17.7,12,17.6,12,17.6,12z M13.7,8.3c0.7,0,1.2,0.6,1.8,1.2c0.4,0.4,0.7,0.8,1.1,1
    c0.5,0.3,1,0.3,1,0.3l0.1,0l2.8,0c0.1,0,0.3-0.1,0.4-0.1c0,0,0-0.1-0.1-0.1c-0.3-0.5-1-1.3-2-2.1c-0.9-0.7-1.3-1.1-1.4-1.7
    c0-0.6,0.4-1.1,1.2-2.1c0.2-0.2,0.4-0.5,0.7-0.8c1.1-1.4,1.4-2,1.5-2.3c-0.1,0-0.5,0-0.5,0l-3.2,0c-0.1,0-0.2,0-0.2,0
    C16.9,2,16.4,3.1,15.8,4c-1.4,2.1-2,2.4-2.5,2.4c-0.1,0-0.3,0-0.4-0.1c-0.7-0.4-0.7-1.4-0.7-2.1c0-0.1,0-0.2,0-0.3
    c0-0.5,0-0.9,0-1.3c0.1-1.3,0-1.3-0.3-1.4c-0.3-0.1-0.5-0.1-1.4-0.1l-0.5,0c-0.5,0-1,0-1.4,0.1c0.1,0.1,0.1,0.1,0.2,0.2
    c0.4,0.5,0.4,1.5,0.4,1.7c0.1,1.3,0,2.9-0.7,3.3C8.4,6.4,8.3,6.5,8.1,6.5C7.5,6.5,6.8,5.8,5.6,4C5,2.9,4.5,1.8,4.5,1.8
    c0,0,0-0.1-0.1-0.1c-0.1,0-0.2-0.1-0.2-0.1l-2.9,0c0,0,0,0-0.1,0c0.4,0.9,2.5,5,4.8,7.2c2,1.9,4.3,2,4.7,2l1.4,0c0,0,0.2,0,0.2-0.1
    c0,0,0,0,0-0.1c0-0.2,0-2,1.2-2.3C13.5,8.3,13.6,8.3,13.7,8.3z"/>
  </g>
</symbol><symbol id="icon-fb" viewBox="34.789 -4.709 13.518 27.75">
  <g>
    <path d="M44.32,23.041h-6.816V10.137h-2.715V3.763h2.629c-0.202-2.887,0.298-5,1.519-6.444c1.039-1.229,2.583-1.911,4.588-2.026
    l4.782-0.001v6.15h-3.755c-0.166,0.315-0.251,1.093-0.252,2.321h3.978v6.375H44.32V23.041z M39.004,21.541h3.816V8.637h3.957V5.263
    h-3.953l-0.016-0.734c-0.044-2.04,0.002-3.784,1.007-4.46l0.19-0.127h2.801v-3.15h-3.239c-1.557,0.091-2.711,0.581-3.485,1.496
    c-1.041,1.231-1.41,3.298-1.099,6.144l0.092,0.832h-2.786v3.375h2.715V21.541z"/>
  </g>
</symbol><symbol id="htmlacademy" viewBox="0 0 60 60"><path fill="#2E368F" d="M30.2 5h-.2l-19.7 2.1v36.2l19.7 11.7 19.7-11.7v-36.2l-19.5-2.1zm17 36.8l-17.2 10.2-17.2-10.2v-14.8l17.1 10.2v1.8l-11.7-7v1.8l11.8 7.1v1.9l-11.8-7v1.8l11.8 7 11.9-7.1v-7.6l5.3-3.2v15.1zm-.1-17l-4.7 2.8-2.2 1.3-10.3-6.1v1.8l8.8 5.3h-.1l-.2.1-1.3.7-7.3-4.3v1.8l5.8 3.4-1.4.9-4.3-2.6v1.8l2.9 1.7-2.9 1.7-17-10.1 17-10.2 17.2 10zm.1-1.8l-17.3-10.2-17.1 10.2v-13.6l17.2-1.8 17.2 1.8v13.6z"/></symbol><symbol id="icon-mail" viewBox="0 0 17 13">
  <path d="M15.6,11.6H1.4V5.8H0V13h17V5.8h-1.4V11.6z M0,0v2.3l8.5,7.1L17,2.3V0H0z M15.6,1.6L8.5,7.5L1.4,1.6V1.4h14.2L15.6,1.6z"/>
</symbol><symbol id="icon-phone" viewBox="0 0 20 20">
  <path d="M17.9,9.4H9.4v1.2h8.5l-2.1,2.1l0.9,0.9l3.1-3.1c0.2-0.2,0.2-0.6,0-0.9l-3.1-3.1l-0.9,0.9L17.9,9.4z"/>
  <path d="M8.1,19.4v-6.2c0-0.3-0.3-0.6-0.6-0.6H4.4l0,0H3.1l0,0c0,0.7,0.6,1.2,1.2,1.2h2.5v5H3.1c-1,0.1-1.8-0.7-1.9-1.7
  c0-0.1,0-0.1,0-0.2V3.1c0-1,0.8-1.8,1.7-1.8c0.1,0,0.1,0,0.2,0h3.7v5H4.4c-0.7,0-1.2,0.6-1.2,1.2h4.4c0.3,0,0.6-0.3,0.6-0.6V0.6
  C8.1,0.3,7.8,0,7.5,0H3.1C1.5-0.1,0.1,1.2,0,2.9C0,3,0,3.1,0,3.1v13.7c-0.1,1.7,1.2,3.1,2.9,3.1c0.1,0,0.2,0,0.2,0h4.4
  C7.8,20,8.1,19.7,8.1,19.4z"/>
</symbol></svg>